<mxfile host="app.diagrams.net" modified="2023-12-05T10:45:28.895Z" agent="Mozilla/5.0 (X11; Linux x86_64; Chromium GOST) AppleWebKit/537.36 (KHTML, like Gecko) Chrome/110.0.0.0 Safari/537.36" etag="gA5HO6n4ZmC7OfylFhZU" version="22.1.5" type="github">
  <diagram name="Страница — 1" id="VJD6JgEHWSqEKlqEP3wv">
    <mxGraphModel dx="419" dy="31" grid="1" gridSize="10" guides="1" tooltips="1" connect="1" arrows="1" fold="1" page="0" pageScale="1" pageWidth="827" pageHeight="1169" math="0" shadow="0">
      <root>
        <mxCell id="0" />
        <mxCell id="1" parent="0" />
        <mxCell id="SvgV_56rTTklij22YndR-1" value="Тестирование селекторов" style="rounded=1;whiteSpace=wrap;html=1;" vertex="1" parent="1">
          <mxGeometry x="410" y="440" width="170" height="30" as="geometry" />
        </mxCell>
        <mxCell id="SvgV_56rTTklij22YndR-2" value="wagonSelectors.test.ts" style="rounded=1;whiteSpace=wrap;html=1;fillColor=#e1d5e7;strokeColor=#9673a6;" vertex="1" parent="1">
          <mxGeometry x="590" y="440" width="150" height="30" as="geometry" />
        </mxCell>
      </root>
    </mxGraphModel>
  </diagram>
</mxfile>
